<svg version="1.1" id="Layer_1" xmlns="http://www.w3.org/2000/svg" xmlns:xlink="http://www.w3.org/1999/xlink" x="0px" y="0px"
	 width="100%" viewBox="0 0 500 500" enable-background="new 0 0 500 500" xml:space="preserve">
<path fill="#000100" opacity="1.000000" stroke="none" 
	d="
M1.000000,169.000000 
	C1.000000,112.680611 1.000000,56.861214 1.000000,1.020911 
	C167.611115,1.020911 334.222229,1.020911 500.916687,1.020911 
	C500.916687,167.569458 500.916687,334.138977 500.916687,500.854248 
	C334.333435,500.854248 167.666733,500.854248 1.000000,500.854248 
	C1.000000,390.444305 1.000000,279.972168 1.000000,169.000000 
M152.025391,136.766403 
	C172.365234,132.277725 192.705078,127.789032 213.949539,123.100716 
	C215.307419,135.338913 217.476837,148.507019 218.033585,161.742950 
	C218.567505,174.436691 217.760727,187.222717 216.923233,199.927307 
	C216.209595,210.752975 215.074753,221.597794 213.279480,232.291977 
	C211.508438,242.841843 208.881668,253.268402 206.128967,263.615692 
	C205.590149,265.641083 203.047714,267.789764 200.932556,268.628174 
	C190.652969,272.702820 180.157349,276.227997 169.825546,280.176239 
	C149.064468,288.109894 129.383652,298.203735 110.523819,309.962952 
	C95.665619,319.227142 81.316498,329.211548 68.667221,341.317810 
	C53.157520,356.161682 38.266922,371.551575 27.961912,390.811523 
	C18.817635,407.902008 12.783557,425.532166 13.955446,445.274445 
	C14.915980,461.456085 22.160324,473.745178 36.480503,480.825531 
	C64.342331,494.601257 93.120308,494.356079 121.850685,483.674225 
	C138.466400,477.496552 152.831955,467.200134 165.611084,455.175079 
	C178.624390,442.929565 190.985413,430.046997 201.554535,415.356415 
	C211.937500,400.924561 221.513489,386.181335 229.109558,370.139496 
	C231.572418,364.938263 233.940460,359.692139 236.329758,354.514496 
	C240.768127,356.729156 244.768814,358.725433 248.824829,360.749329 
	C248.183472,365.807678 248.002747,371.359192 246.699112,376.633118 
	C244.187195,386.795166 241.436188,396.934601 238.073395,406.842133 
	C231.339294,426.682220 219.624435,442.719391 201.069077,453.296417 
	C199.630646,454.116364 198.586823,456.344147 198.167404,458.109528 
	C196.547653,464.927307 202.032944,467.355286 209.103348,466.680786 
	C215.944168,466.028137 222.720795,464.690430 229.520386,463.620392 
	C240.078415,461.958801 249.730179,457.575806 257.828094,451.038635 
	C277.015930,435.548981 287.236542,414.633972 291.632111,390.661133 
	C292.645477,385.134338 293.558807,379.589203 294.607697,373.535889 
	C298.102814,376.549591 301.236145,379.293121 304.414062,381.983917 
	C315.079803,391.014832 323.895935,401.460114 329.206024,414.551544 
	C331.594147,420.439026 333.478271,426.554535 336.191925,432.281952 
	C344.237518,449.262878 357.084442,461.908020 373.266388,471.059113 
	C383.482788,476.836609 394.372101,480.892639 406.094543,483.136780 
	C419.327881,485.670227 431.973816,483.891174 444.614685,480.548157 
	C447.787048,479.709198 449.358856,477.070770 448.969299,473.583649 
	C448.613068,470.395264 448.006775,467.402344 444.283875,466.402222 
	C441.322876,465.606781 438.335968,464.880798 435.427704,463.920654 
	C415.838409,457.453461 401.317200,445.049042 392.420563,426.406769 
	C387.257538,415.588043 383.013580,404.317719 377.589386,393.640076 
	C371.186157,381.035217 362.337341,370.216522 350.554077,361.553650 
	C351.603088,361.011536 352.493530,360.310974 353.494415,360.070862 
	C365.069305,357.294128 376.019867,352.961945 386.313446,346.993225 
	C405.835938,335.673004 410.666138,320.414032 405.290192,299.578278 
	C401.578522,285.192871 390.912994,275.576050 378.186432,269.286957 
	C368.245331,264.374359 357.331207,260.965759 346.483368,258.498169 
	C337.575043,256.471741 328.132599,256.337769 318.918610,256.251404 
	C311.249786,256.179535 303.550842,257.233124 295.897552,258.079834 
	C284.303833,259.362610 272.738129,260.898407 260.369781,262.424255 
	C261.033691,259.389099 261.995880,256.454102 262.278839,253.455002 
	C263.889465,236.382462 265.712585,219.316071 266.693085,202.203476 
	C267.231384,192.809067 266.144562,183.329819 265.986542,173.885544 
	C265.619141,151.921951 261.149323,130.820312 253.222198,110.371170 
	C252.789368,109.254616 253.716431,106.560867 254.709030,106.097420 
	C273.061951,97.528458 291.680145,89.516251 309.915314,80.709427 
	C329.636139,71.185074 348.941528,60.881203 370.244507,54.982567 
	C385.312592,50.810333 400.466644,47.494896 416.096649,46.856434 
	C439.131836,45.915482 461.426086,49.506550 482.863983,58.209873 
	C486.157776,59.547081 489.568817,58.838791 491.696686,55.665600 
	C493.662018,52.734734 493.314026,49.667408 490.915161,47.029659 
	C489.925415,45.941372 488.764343,44.933842 487.508667,44.175110 
	C481.076447,40.288620 474.556702,36.547031 468.125793,32.658466 
	C454.628571,24.497154 439.751617,19.650990 424.715576,15.640199 
	C406.447723,10.767329 387.581207,8.746052 368.730865,8.283893 
	C354.540375,7.935980 340.126160,8.269432 326.134644,10.410794 
	C309.085968,13.020046 292.083160,16.888786 275.595428,21.953888 
	C256.231842,27.902456 237.404694,35.619732 218.414474,42.755116 
	C195.719086,51.282677 173.197540,60.282738 150.406555,68.542427 
	C136.506180,73.580063 121.863869,76.065323 107.113785,76.075813 
	C95.598015,76.084000 84.206512,74.858704 72.775795,71.653557 
	C52.347565,65.925552 35.538631,55.790215 22.583569,38.963409 
	C21.060228,36.984806 17.421005,35.570347 14.863258,35.711929 
	C11.353853,35.906193 9.792733,39.056335 10.072682,42.708134 
	C10.237689,44.860569 10.292803,47.026466 10.565928,49.164776 
	C12.721287,66.039200 22.071533,79.596848 32.824078,91.556305 
	C48.473923,108.962753 68.450104,121.048271 90.109154,129.682571 
	C99.432449,133.399261 109.776512,134.555389 120.199211,137.619736 
	C125.923882,137.739929 131.651642,138.030457 137.372253,137.926727 
	C141.999466,137.842819 146.618073,137.284164 152.025391,136.766403 
z"/>
<path fill="#EAF7E9" opacity="1.000000" stroke="none" 
	d="
M119.656837,136.874802 
	C109.776512,134.555389 99.432449,133.399261 90.109154,129.682571 
	C68.450104,121.048271 48.473923,108.962753 32.824078,91.556305 
	C22.071533,79.596848 12.721287,66.039200 10.565928,49.164776 
	C10.292803,47.026466 10.237689,44.860569 10.072682,42.708134 
	C9.792733,39.056335 11.353853,35.906193 14.863258,35.711929 
	C17.421005,35.570347 21.060228,36.984806 22.583569,38.963409 
	C35.538631,55.790215 52.347565,65.925552 72.775795,71.653557 
	C84.206512,74.858704 95.598015,76.084000 107.113785,76.075813 
	C121.863869,76.065323 136.506180,73.580063 150.406555,68.542427 
	C173.197540,60.282738 195.719086,51.282677 218.414474,42.755116 
	C237.404694,35.619732 256.231842,27.902456 275.595428,21.953888 
	C292.083160,16.888786 309.085968,13.020046 326.134644,10.410794 
	C340.126160,8.269432 354.540375,7.935980 368.730865,8.283893 
	C387.581207,8.746052 406.447723,10.767329 424.715576,15.640199 
	C439.751617,19.650990 454.628571,24.497154 468.125793,32.658466 
	C474.556702,36.547031 481.076447,40.288620 487.508667,44.175110 
	C488.764343,44.933842 489.925415,45.941372 490.915161,47.029659 
	C493.314026,49.667408 493.662018,52.734734 491.696686,55.665600 
	C489.568817,58.838791 486.157776,59.547081 482.863983,58.209873 
	C461.426086,49.506550 439.131836,45.915482 416.096649,46.856434 
	C400.466644,47.494896 385.312592,50.810333 370.244507,54.982567 
	C348.941528,60.881203 329.636139,71.185074 309.915314,80.709427 
	C291.680145,89.516251 273.061951,97.528458 254.709030,106.097420 
	C253.716431,106.560867 252.789368,109.254616 253.222198,110.371170 
	C261.149323,130.820312 265.619141,151.921951 265.986542,173.885544 
	C266.144562,183.329819 267.231384,192.809067 266.693085,202.203476 
	C265.712585,219.316071 263.889465,236.382462 262.278839,253.455002 
	C261.995880,256.454102 261.033691,259.389099 260.369781,262.424255 
	C272.738129,260.898407 284.303833,259.362610 295.897552,258.079834 
	C303.550842,257.233124 311.249786,256.179535 318.918610,256.251404 
	C328.132599,256.337769 337.575043,256.471741 346.483368,258.498169 
	C357.331207,260.965759 368.245331,264.374359 378.186432,269.286957 
	C390.912994,275.576050 401.578522,285.192871 405.290192,299.578278 
	C410.666138,320.414032 405.835938,335.673004 386.313446,346.993225 
	C376.019867,352.961945 365.069305,357.294128 353.494415,360.070862 
	C352.493530,360.310974 351.603088,361.011536 350.554077,361.553650 
	C362.337341,370.216522 371.186157,381.035217 377.589386,393.640076 
	C383.013580,404.317719 387.257538,415.588043 392.420563,426.406769 
	C401.317200,445.049042 415.838409,457.453461 435.427704,463.920654 
	C438.335968,464.880798 441.322876,465.606781 444.283875,466.402222 
	C448.006775,467.402344 448.613068,470.395264 448.969299,473.583649 
	C449.358856,477.070770 447.787048,479.709198 444.614685,480.548157 
	C431.973816,483.891174 419.327881,485.670227 406.094543,483.136780 
	C394.372101,480.892639 383.482788,476.836609 373.266388,471.059113 
	C357.084442,461.908020 344.237518,449.262878 336.191925,432.281952 
	C333.478271,426.554535 331.594147,420.439026 329.206024,414.551544 
	C323.895935,401.460114 315.079803,391.014832 304.414062,381.983917 
	C301.236145,379.293121 298.102814,376.549591 294.607697,373.535889 
	C293.558807,379.589203 292.645477,385.134338 291.632111,390.661133 
	C287.236542,414.633972 277.015930,435.548981 257.828094,451.038635 
	C249.730179,457.575806 240.078415,461.958801 229.520386,463.620392 
	C222.720795,464.690430 215.944168,466.028137 209.103348,466.680786 
	C202.032944,467.355286 196.547653,464.927307 198.167404,458.109528 
	C198.586823,456.344147 199.630646,454.116364 201.069077,453.296417 
	C219.624435,442.719391 231.339294,426.682220 238.073395,406.842133 
	C241.436188,396.934601 244.187195,386.795166 246.699112,376.633118 
	C248.002747,371.359192 248.183472,365.807678 248.824829,360.749329 
	C244.768814,358.725433 240.768127,356.729156 236.329758,354.514496 
	C233.940460,359.692139 231.572418,364.938263 229.109558,370.139496 
	C221.513489,386.181335 211.937500,400.924561 201.554535,415.356415 
	C190.985413,430.046997 178.624390,442.929565 165.611084,455.175079 
	C152.831955,467.200134 138.466400,477.496552 121.850685,483.674225 
	C93.120308,494.356079 64.342331,494.601257 36.480503,480.825531 
	C22.160324,473.745178 14.915980,461.456085 13.955446,445.274445 
	C12.783557,425.532166 18.817635,407.902008 27.961912,390.811523 
	C38.266922,371.551575 53.157520,356.161682 68.667221,341.317810 
	C81.316498,329.211548 95.665619,319.227142 110.523819,309.962952 
	C129.383652,298.203735 149.064468,288.109894 169.825546,280.176239 
	C180.157349,276.227997 190.652969,272.702820 200.932556,268.628174 
	C203.047714,267.789764 205.590149,265.641083 206.128967,263.615692 
	C208.881668,253.268402 211.508438,242.841843 213.279480,232.291977 
	C215.074753,221.597794 216.209595,210.752975 216.923233,199.927307 
	C217.760727,187.222717 218.567505,174.436691 218.033585,161.742950 
	C217.476837,148.507019 215.307419,135.338913 213.949539,123.100716 
	C192.705078,127.789032 172.365234,132.277725 151.140930,136.834061 
	C140.056595,136.892746 129.856720,136.883774 119.656837,136.874802 
M251.395721,306.098907 
	C251.297699,306.441559 251.199692,306.784210 250.970673,307.943298 
	C248.000824,319.217133 245.030975,330.490967 241.922028,342.292847 
	C245.086502,341.770111 248.154861,341.263214 250.925507,340.805542 
	C251.740753,336.312714 252.471115,332.287628 253.731430,327.560181 
	C253.599258,320.606720 253.467087,313.653259 253.244003,306.391907 
	C253.244003,306.391907 253.146011,306.086243 253.186127,305.438354 
	C252.945602,305.100433 252.705078,304.762512 252.464554,304.424591 
	C252.287170,304.930573 252.109787,305.436584 251.998810,305.977844 
	C251.998810,305.977844 251.929718,305.957092 251.395721,306.098907 
M478.965912,48.856384 
	C479.223389,48.803093 479.480835,48.749805 479.738312,48.696514 
	C479.559845,48.396671 479.381378,48.096828 478.883698,47.187290 
	C448.447205,27.266647 414.480347,18.596621 378.677917,16.038877 
	C349.379303,13.945773 320.597717,16.880806 292.202759,24.725842 
	C261.251984,33.277016 231.740494,45.577969 202.127411,57.702103 
	C175.554245,68.581635 149.018433,79.477280 120.052406,82.756363 
	C100.850296,84.930130 82.245743,82.996216 64.035606,76.903793 
	C45.957752,70.855629 30.133520,61.325745 17.608719,44.822792 
	C18.115610,53.539417 20.691008,60.356869 24.452139,66.462646 
	C47.847282,104.442062 82.646454,124.674866 126.315056,129.780396 
	C149.317291,132.469696 171.507263,126.491203 193.415863,120.100388 
	C201.621521,117.706772 209.739746,115.013428 218.692032,112.207848 
	C220.604370,123.393707 223.360336,133.939407 224.015244,144.614014 
	C225.072998,161.855331 225.285614,179.194077 224.879959,196.468781 
	C224.287476,221.701340 219.291519,246.272949 211.313660,270.197296 
	C210.679642,272.098633 208.465790,274.099182 206.523849,274.837097 
	C193.516251,279.779785 180.139526,283.815247 167.336761,289.220795 
	C129.289322,305.285187 94.086563,325.928345 64.721207,355.500183 
	C44.778500,375.583069 28.002062,397.792694 22.535923,426.280701 
	C16.881828,455.748260 25.808701,472.174133 54.169914,480.059357 
	C86.187515,488.961182 115.985893,482.834198 142.702148,463.652008 
	C183.334610,434.478058 211.640900,395.425232 230.211823,349.357330 
	C236.574326,333.574188 240.768600,316.915955 245.928223,300.649506 
	C247.485016,295.741486 249.925766,291.700928 255.225769,290.162292 
	C263.715729,304.230164 261.275482,332.927368 256.856781,348.829803 
	C252.986404,349.062378 249.116013,349.294952 245.245621,349.527557 
	C245.210342,349.950989 245.175049,350.374420 245.139755,350.797852 
	C248.999084,352.092773 252.858398,353.387695 256.991882,354.774597 
	C252.622391,395.089539 243.888855,433.127563 207.588303,458.879578 
	C221.022751,459.104065 236.366211,455.372040 246.288788,449.473450 
	C270.112640,435.311066 279.932526,412.381470 284.931305,386.688629 
	C286.619659,378.010712 287.174652,369.112274 288.270447,360.127350 
	C289.254578,360.651459 290.030975,360.966095 290.699066,361.435028 
	C313.278473,377.283813 331.775452,396.016968 340.831635,423.284088 
	C352.128632,457.297882 390.477386,476.358093 418.265350,476.918854 
	C425.705414,477.069031 433.102600,476.874603 441.124634,473.429535 
	C409.224213,465.803436 390.661224,445.494385 380.213837,416.304199 
	C371.971344,393.274445 358.118225,374.402008 336.660278,361.765503 
	C334.201263,360.317474 331.750000,358.856354 328.545807,356.957092 
	C335.751678,355.733704 341.831757,354.997406 347.768036,353.634857 
	C362.224121,350.316803 376.402222,346.147217 388.280640,336.680481 
	C395.847198,330.650177 400.120789,322.769318 400.094910,312.972595 
	C400.055084,297.891571 391.913116,287.378204 380.210419,279.155762 
	C364.187927,267.898193 345.733673,263.940857 326.762543,264.303589 
	C308.025787,264.661835 289.320526,267.149414 270.625641,268.953156 
	C264.115143,269.581329 257.676727,270.956787 250.999710,272.023834 
	C263.016327,214.853821 265.297028,158.641479 243.038986,103.592361 
	C243.692993,103.084457 244.159409,102.564728 244.741577,102.292686 
	C275.232544,88.044044 305.711792,73.769943 336.239746,59.600857 
	C361.648041,47.807995 388.304047,40.747204 416.322174,39.262802 
	C437.656921,38.132492 458.272095,42.188831 478.965912,48.856384 
z"/>
<path fill="#31CB31" opacity="1.000000" stroke="none" 
	d="
M119.928024,137.247269 
	C129.856720,136.883774 140.056595,136.892746 150.748489,136.918915 
	C146.618073,137.284164 141.999466,137.842819 137.372253,137.926727 
	C131.651642,138.030457 125.923882,137.739929 119.928024,137.247269 
z"/>
<path fill="#020202" opacity="1.000000" stroke="none" 
	d="
M478.521851,48.526024 
	C458.272095,42.188831 437.656921,38.132492 416.322174,39.262802 
	C388.304047,40.747204 361.648041,47.807995 336.239746,59.600857 
	C305.711792,73.769943 275.232544,88.044044 244.741577,102.292686 
	C244.159409,102.564728 243.692993,103.084457 243.038986,103.592361 
	C265.297028,158.641479 263.016327,214.853821 250.999710,272.023834 
	C257.676727,270.956787 264.115143,269.581329 270.625641,268.953156 
	C289.320526,267.149414 308.025787,264.661835 326.762543,264.303589 
	C345.733673,263.940857 364.187927,267.898193 380.210419,279.155762 
	C391.913116,287.378204 400.055084,297.891571 400.094910,312.972595 
	C400.120789,322.769318 395.847198,330.650177 388.280640,336.680481 
	C376.402222,346.147217 362.224121,350.316803 347.768036,353.634857 
	C341.831757,354.997406 335.751678,355.733704 328.545807,356.957092 
	C331.750000,358.856354 334.201263,360.317474 336.660278,361.765503 
	C358.118225,374.402008 371.971344,393.274445 380.213837,416.304199 
	C390.661224,445.494385 409.224213,465.803436 441.124634,473.429535 
	C433.102600,476.874603 425.705414,477.069031 418.265350,476.918854 
	C390.477386,476.358093 352.128632,457.297882 340.831635,423.284088 
	C331.775452,396.016968 313.278473,377.283813 290.699066,361.435028 
	C290.030975,360.966095 289.254578,360.651459 288.270447,360.127350 
	C287.174652,369.112274 286.619659,378.010712 284.931305,386.688629 
	C279.932526,412.381470 270.112640,435.311066 246.288788,449.473450 
	C236.366211,455.372040 221.022751,459.104065 207.588303,458.879578 
	C243.888855,433.127563 252.622391,395.089539 256.991882,354.774597 
	C252.858398,353.387695 248.999084,352.092773 245.139755,350.797852 
	C245.175049,350.374420 245.210342,349.950989 245.245621,349.527557 
	C249.116013,349.294952 252.986404,349.062378 256.856323,348.827759 
	C261.275482,332.927368 263.715729,304.230164 255.225769,290.162292 
	C249.925766,291.700928 247.485016,295.741486 245.928223,300.649506 
	C240.768600,316.915955 236.574326,333.574188 230.211823,349.357330 
	C211.640900,395.425232 183.334610,434.478058 142.702148,463.652008 
	C115.985893,482.834198 86.187515,488.961182 54.169914,480.059357 
	C25.808701,472.174133 16.881828,455.748260 22.535923,426.280701 
	C28.002062,397.792694 44.778500,375.583069 64.721207,355.500183 
	C94.086563,325.928345 129.289322,305.285187 167.336761,289.220795 
	C180.139526,283.815247 193.516251,279.779785 206.523849,274.837097 
	C208.465790,274.099182 210.679642,272.098633 211.313660,270.197296 
	C219.291519,246.272949 224.287476,221.701340 224.879959,196.468781 
	C225.285614,179.194077 225.072998,161.855331 224.015244,144.614014 
	C223.360336,133.939407 220.604370,123.393707 218.692032,112.207848 
	C209.739746,115.013428 201.621521,117.706772 193.415863,120.100388 
	C171.507263,126.491203 149.317291,132.469696 126.315056,129.780396 
	C82.646454,124.674866 47.847282,104.442062 24.452139,66.462646 
	C20.691008,60.356869 18.115610,53.539417 17.608719,44.822792 
	C30.133520,61.325745 45.957752,70.855629 64.035606,76.903793 
	C82.245743,82.996216 100.850296,84.930130 120.052406,82.756363 
	C149.018433,79.477280 175.554245,68.581635 202.127411,57.702103 
	C231.740494,45.577969 261.251984,33.277016 292.202759,24.725842 
	C320.597717,16.880806 349.379303,13.945773 378.677917,16.038877 
	C414.480347,18.596621 448.447205,27.266647 478.869141,47.670746 
	C478.854553,48.154198 478.521851,48.526024 478.521851,48.526024 
M184.344986,350.899048 
	C192.288635,337.674652 199.177841,324.016815 202.316650,308.126526 
	C200.601852,308.623077 199.498337,308.838379 198.476166,309.253815 
	C169.762787,320.923431 143.853943,337.191467 120.321541,357.269318 
	C111.700203,364.625031 103.935501,372.833984 98.929237,383.181091 
	C95.255791,390.773468 93.101059,398.780426 98.643524,406.299744 
	C103.973740,413.531128 111.801170,413.805145 119.913414,412.348755 
	C129.709412,410.590118 137.844604,405.573486 145.283539,399.330292 
	C161.267349,385.915680 173.051895,369.060883 184.344986,350.899048 
M295.248749,341.703979 
	C304.832947,338.301147 314.148590,334.443085 321.441956,326.949799 
	C333.580017,314.478973 330.034729,298.270874 313.380981,293.119873 
	C304.606415,290.405884 295.276947,289.231384 286.105225,288.144257 
	C279.816956,287.398895 273.368958,288.001465 266.557922,288.001465 
	C277.739319,305.226562 283.260284,324.346283 287.135681,344.185089 
	C290.065796,343.270386 292.274261,342.580933 295.248749,341.703979 
z"/>
<path fill="#030C03" opacity="1.000000" stroke="none" 
	d="
M253.146011,306.086243 
	C253.146011,306.086243 253.244003,306.391907 253.159485,307.027435 
	C253.117157,314.529510 253.159317,321.396027 253.201477,328.262573 
	C252.471115,332.287628 251.740753,336.312714 250.925507,340.805542 
	C248.154861,341.263214 245.086502,341.770111 241.922028,342.292847 
	C245.030975,330.490967 248.000824,319.217133 251.290100,307.433167 
	C251.716248,306.601074 251.822983,306.279083 251.929718,305.957092 
	C251.929718,305.957092 251.998810,305.977844 252.275345,305.942871 
	C252.749939,305.967377 252.947983,306.026825 253.146011,306.086243 
z"/>
<path fill="#77D677" opacity="1.000000" stroke="none" 
	d="
M253.466461,327.911377 
	C253.159317,321.396027 253.117157,314.529510 253.204941,307.181396 
	C253.467087,313.653259 253.599258,320.606720 253.466461,327.911377 
z"/>
<path fill="#77D677" opacity="1.000000" stroke="none" 
	d="
M253.166077,305.762299 
	C252.947983,306.026825 252.749939,305.967377 252.242157,305.925232 
	C252.109787,305.436584 252.287170,304.930573 252.464569,304.424591 
	C252.705078,304.762512 252.945602,305.100433 253.166077,305.762299 
z"/>
<path fill="#020202" opacity="1.000000" stroke="none" 
	d="
M479.028748,47.975594 
	C479.381378,48.096828 479.559845,48.396671 479.738312,48.696514 
	C479.480835,48.749805 479.223389,48.803093 478.743896,48.691204 
	C478.521851,48.526024 478.854553,48.154198 479.028748,47.975594 
z"/>
<path fill="#77D677" opacity="1.000000" stroke="none" 
	d="
M251.662720,306.028015 
	C251.822983,306.279083 251.716248,306.601074 251.355591,307.024963 
	C251.199692,306.784210 251.297699,306.441559 251.662720,306.028015 
z"/>
<path fill="#EBF7EB" opacity="1.000000" stroke="none" 
	d="
M184.169540,351.220337 
	C173.051895,369.060883 161.267349,385.915680 145.283539,399.330292 
	C137.844604,405.573486 129.709412,410.590118 119.913414,412.348755 
	C111.801170,413.805145 103.973740,413.531128 98.643524,406.299744 
	C93.101059,398.780426 95.255791,390.773468 98.929237,383.181091 
	C103.935501,372.833984 111.700203,364.625031 120.321541,357.269318 
	C143.853943,337.191467 169.762787,320.923431 198.476166,309.253815 
	C199.498337,308.838379 200.601852,308.623077 202.316650,308.126526 
	C199.177841,324.016815 192.288635,337.674652 184.169540,351.220337 
M105.636131,402.897461 
	C110.250313,406.888367 115.660583,405.650879 120.563850,404.388763 
	C135.156616,400.632446 145.744797,390.814850 154.493668,379.284210 
	C163.906494,366.878448 172.553223,353.865692 181.055420,340.806030 
	C185.041428,334.683441 187.903091,327.828857 191.274292,321.306000 
	C180.883942,325.532257 171.137283,329.953247 162.142380,335.576660 
	C152.086563,341.863373 142.369751,348.814728 133.129425,356.252106 
	C121.867287,365.316772 110.722229,374.704956 104.677505,388.500610 
	C102.608253,393.223175 101.765488,397.799408 105.636131,402.897461 
z"/>
<path fill="#EAF6EA" opacity="1.000000" stroke="none" 
	d="
M294.865723,341.797729 
	C292.274261,342.580933 290.065796,343.270386 287.135681,344.185089 
	C283.260284,324.346283 277.739319,305.226562 266.557922,288.001465 
	C273.368958,288.001465 279.816956,287.398895 286.105225,288.144257 
	C295.276947,289.231384 304.606415,290.405884 313.380981,293.119873 
	C330.034729,298.270874 333.580017,314.478973 321.441956,326.949799 
	C314.148590,334.443085 304.832947,338.301147 294.865723,341.797729 
M289.625153,321.852356 
	C290.681580,325.930939 291.738007,330.009552 293.133453,335.396973 
	C300.537262,331.313049 307.536774,327.952698 313.973145,323.733368 
	C318.593689,320.704376 322.065643,316.097839 321.038391,310.047455 
	C320.122711,304.654083 315.882355,301.421997 311.094452,299.931854 
	C301.093262,296.819183 290.853119,294.612946 280.347626,295.994263 
	C283.370300,304.496307 286.324829,312.806580 289.625153,321.852356 
z"/>
<path fill="#010401" opacity="1.000000" stroke="none" 
	d="
M105.329498,402.615479 
	C101.765488,397.799408 102.608253,393.223175 104.677505,388.500610 
	C110.722229,374.704956 121.867287,365.316772 133.129425,356.252106 
	C142.369751,348.814728 152.086563,341.863373 162.142380,335.576660 
	C171.137283,329.953247 180.883942,325.532257 191.274292,321.306000 
	C187.903091,327.828857 185.041428,334.683441 181.055420,340.806030 
	C172.553223,353.865692 163.906494,366.878448 154.493668,379.284210 
	C145.744797,390.814850 135.156616,400.632446 120.563850,404.388763 
	C115.660583,405.650879 110.250313,406.888367 105.329498,402.615479 
z"/>
<path fill="#020702" opacity="1.000000" stroke="none" 
	d="
M289.452240,321.484619 
	C286.324829,312.806580 283.370300,304.496307 280.347626,295.994263 
	C290.853119,294.612946 301.093262,296.819183 311.094452,299.931854 
	C315.882355,301.421997 320.122711,304.654083 321.038391,310.047455 
	C322.065643,316.097839 318.593689,320.704376 313.973145,323.733368 
	C307.536774,327.952698 300.537262,331.313049 293.133453,335.396973 
	C291.738007,330.009552 290.681580,325.930939 289.452240,321.484619 
z"/>
</svg>